<svg width="601" height="578" viewBox="0 0 601 578" fill="none" xmlns="http://www.w3.org/2000/svg">
<g clip-path="url(#clip0)">
<path d="M22.3077 467.975H579.098C579.098 467.975 599.898 466.878 599.898 442.638V394.854H0.373871V453.131C1.83118 457.629 4.73045 461.521 8.62293 464.204C12.5154 466.888 17.184 468.213 21.9056 467.975" fill="#565656"/>
<path d="M0.37405 32.9045L0.00857544 413.134L599.898 407.65V21.9363C599.898 21.9363 603.554 0 580.194 0H23.0024C23.0024 0 -2.1849 -1.42858e-05 0.37405 33.2335" fill="#565656"/>
<path d="M252.613 569.978V464.319L340.348 467.975V560.838L252.613 569.978Z" fill="#565656"/>
<path d="M113.333 559.376L477.91 559.486L478.129 577.656H113.333V559.376Z" fill="#565656"/>
<path d="M294.762 420.812C298.233 420.812 301.625 421.841 304.511 423.769C307.397 425.697 309.645 428.438 310.974 431.645C312.302 434.852 312.649 438.38 311.972 441.784C311.295 445.188 309.624 448.315 307.17 450.77C304.716 453.224 301.589 454.895 298.185 455.572C294.782 456.25 291.254 455.902 288.047 454.574C284.841 453.246 282.1 450.996 280.172 448.11C278.244 445.224 277.215 441.831 277.215 438.361C277.215 433.706 279.064 429.243 282.354 425.952C285.645 422.66 290.109 420.812 294.762 420.812Z" fill="white"/>
<path d="M581.62 18.2803H18.6521V387.541H581.62V18.2803Z" fill="black"/>
<path d="M46.9101 54.8408C44.5832 54.8408 42.3517 53.9163 40.7064 52.2708C39.061 50.6252 38.1367 48.3934 38.1367 46.0663C38.1367 44.3308 38.6513 42.6344 39.6153 41.1914C40.5794 39.7484 41.9496 38.6238 43.5528 37.9597C45.1559 37.2955 46.92 37.1218 48.6219 37.4604C50.3238 37.7989 51.8868 38.6346 53.1138 39.8618C54.3408 41.0889 55.1765 42.6523 55.515 44.3544C55.8535 46.0565 55.6797 47.8208 55.0157 49.4241C54.3516 51.0274 53.2272 52.3978 51.7844 53.362C50.3416 54.3261 48.6453 54.8408 46.9101 54.8408Z" fill="#FA5F5D"/>
<path d="M76.8865 37.2917C78.6217 37.2917 80.318 37.8063 81.7608 38.7704C83.2036 39.7346 84.328 41.105 84.9921 42.7083C85.6561 44.3117 85.83 46.0759 85.4914 47.778C85.1529 49.4801 84.3172 51.0436 83.0902 52.2708C81.8632 53.4979 80.2997 54.3336 78.5979 54.6722C76.896 55.0107 75.1321 54.837 73.529 54.1729C71.9258 53.5087 70.5553 52.3841 69.5913 50.9411C68.6272 49.4982 68.1129 47.8017 68.1129 46.0662C68.1129 44.914 68.3396 43.7729 68.7805 42.7083C69.2214 41.6437 69.8677 40.6765 70.6824 39.8617C71.4971 39.047 72.4645 38.4006 73.529 37.9596C74.5934 37.5187 75.7343 37.2917 76.8865 37.2917Z" fill="#FDBC4E"/>
<path d="M108.325 54.8408C105.998 54.8408 103.766 53.9163 102.121 52.2708C100.475 50.6252 99.5513 48.3934 99.5513 46.0663C99.5513 44.3308 100.066 42.6344 101.03 41.1914C101.994 39.7484 103.364 38.6238 104.967 37.9597C106.571 37.2955 108.334 37.1218 110.036 37.4604C111.738 37.7989 113.302 38.6346 114.529 39.8618C115.756 41.0889 116.591 42.6523 116.93 44.3544C117.268 46.0565 117.095 47.8208 116.431 49.4241C115.766 51.0274 114.642 52.3978 113.199 53.362C111.756 54.3261 110.06 54.8408 108.325 54.8408Z" fill="#37CD58"/>
<path d="M230.679 101.455C230.547 103.754 229.512 105.908 227.801 107.448C226.09 108.989 223.84 109.791 221.54 109.682H113.699C108.142 109.682 102.732 106.025 102.732 101.455V85.0398C102.732 80.4697 108.032 76.7771 113.699 76.7771H221.32C223.626 76.584 225.914 77.3093 227.687 78.7951C229.461 80.2809 230.575 82.4071 230.789 84.7108C230.789 84.7108 230.789 84.9301 230.789 85.0398L230.679 101.455Z" fill="url(#paint0_linear)"/>
<path d="M490.229 210.662C490.15 211.884 489.831 213.078 489.29 214.177C488.749 215.275 487.998 216.257 487.078 217.065C486.158 217.873 485.088 218.492 483.929 218.886C482.769 219.28 481.544 219.442 480.322 219.363H113.699C108.069 219.363 102.732 215.488 102.732 210.662V129.351C102.732 124.525 108.105 120.65 113.699 120.65H480.286C481.508 120.565 482.734 120.722 483.895 121.112C485.056 121.502 486.129 122.117 487.053 122.921C487.976 123.726 488.732 124.705 489.277 125.802C489.822 126.899 490.146 128.092 490.229 129.314V210.662Z" fill="url(#paint1_linear)"/>
<path d="M223.368 279.944C223.368 281.119 223.136 282.282 222.685 283.366C222.235 284.451 221.575 285.436 220.742 286.265C219.91 287.094 218.922 287.75 217.836 288.196C216.75 288.642 215.586 288.87 214.412 288.865H113.699C108.032 288.865 102.732 284.88 102.732 279.98V235.523C102.732 230.66 108.142 226.675 113.699 226.675H213.79C214.96 226.596 216.134 226.749 217.244 227.126C218.355 227.503 219.38 228.096 220.26 228.871C221.14 229.646 221.858 230.587 222.373 231.641C222.888 232.695 223.188 233.84 223.258 235.011C223.258 235.011 223.258 235.34 223.258 235.523L223.368 279.944Z" fill="url(#paint2_linear)"/>
<path d="M354.971 279.944C354.98 281.109 354.76 282.264 354.322 283.344C353.884 284.423 353.237 285.406 352.418 286.235C351.6 287.063 350.626 287.722 349.552 288.174C348.478 288.625 347.325 288.86 346.16 288.865H245.301C239.599 288.865 234.335 284.88 234.335 279.98V235.523C234.335 230.66 239.818 226.675 245.301 226.675H345.503C347.844 226.535 350.145 227.331 351.899 228.887C353.654 230.443 354.72 232.633 354.861 234.974C354.861 235.157 354.861 235.34 354.861 235.523L354.971 279.944Z" fill="url(#paint3_linear)"/>
<path d="M490.229 279.944C490.078 282.45 488.939 284.794 487.06 286.46C485.182 288.126 482.719 288.978 480.213 288.828H380.121C377.555 289.012 375.018 288.186 373.051 286.527C371.085 284.867 369.844 282.505 369.593 279.944V235.523C369.853 232.968 371.097 230.616 373.063 228.964C375.029 227.312 377.561 226.491 380.121 226.675H480.176C481.417 226.596 482.662 226.762 483.838 227.164C485.015 227.565 486.101 228.195 487.035 229.017C487.968 229.838 488.731 230.836 489.279 231.952C489.827 233.068 490.15 234.282 490.229 235.523V279.944Z" fill="url(#paint4_linear)"/>
<path d="M354.97 305.28C354.625 306.093 354.095 306.813 353.422 307.385C352.75 307.956 351.953 308.362 351.095 308.571C350.876 308.571 350.657 308.571 350.437 307.108H239.891C237.625 308.571 234.261 307.291 234.334 305.28V303.854C234.334 301.844 237.625 300.198 239.891 299.796H350.437C351.287 299.955 352.067 300.369 352.675 300.983C353.282 301.597 353.688 302.382 353.837 303.233C353.837 303.452 353.837 303.635 354.97 303.854V305.28Z" fill="#E9EDFB"/>
<path d="M354.97 319.685C354.646 320.574 354.111 321.372 353.41 322.009C352.71 322.645 351.865 323.103 350.949 323.341C350.949 323.341 350.62 323.341 350.437 321.769H239.891C237.625 323.378 234.261 321.769 234.334 319.722V318.076C234.334 316.102 237.625 314.969 239.891 314.42H350.437C351.403 314.687 352.304 315.149 353.084 315.778C353.863 316.407 354.506 317.189 354.97 318.076V319.685Z" fill="#E9EDFB"/>
<path d="M354.97 334.127C354.623 335.115 354.027 335.998 353.239 336.69C352.452 337.381 351.499 337.858 350.474 338.075C350.415 337.504 350.415 336.928 350.474 336.357H239.928C239.436 336.678 238.873 336.875 238.289 336.933C237.704 336.99 237.114 336.906 236.569 336.687C236.024 336.469 235.54 336.122 235.157 335.676C234.774 335.23 234.505 334.699 234.371 334.127V332.701C234.371 330.726 237.661 329.922 239.928 329.045H350.474C351.44 329.311 352.341 329.773 353.12 330.402C353.9 331.031 354.542 331.813 355.007 332.701L354.97 334.127Z" fill="#E9EDFB"/>
<path d="M354.97 348.531C353.898 350.858 352.354 352.937 350.437 354.637H239.891C237.625 352.809 234.261 350.542 234.334 348.531V347.106C234.334 345.095 237.625 342.974 239.891 343.669H350.437C350.888 343.561 351.358 343.566 351.806 343.683C352.254 343.8 352.666 344.026 353.006 344.34C353.346 344.655 353.603 345.048 353.754 345.486C353.906 345.924 353.946 346.392 353.874 346.85C353.874 346.85 353.874 346.85 354.97 347.106V348.531Z" fill="#E9EDFB"/>
<path d="M293.629 362.936C293.629 364.728 292.422 365.605 290.339 365.605H239.452C237.405 365.605 234.371 364.728 234.371 362.936V361.62C234.371 359.829 237.405 358.33 239.452 358.33H290.375C290.807 358.33 291.235 358.415 291.635 358.58C292.034 358.746 292.396 358.988 292.702 359.293C293.007 359.599 293.25 359.962 293.415 360.361C293.58 360.76 293.665 361.188 293.665 361.62L293.629 362.936Z" fill="#E9EDFB"/>
<path d="M490.229 305.28C488.145 307.291 488.511 308.571 486.245 307.108H375.662C373.797 308.717 372.006 307.364 372.006 305.5C372.006 305.5 372.006 305.5 373.249 305.28V303.854C372.116 301.917 373.724 300.198 375.662 299.796H486.245C488.511 300.381 488.145 301.844 490.229 303.854V305.28Z" fill="#E9EDFB"/>
<path d="M490.229 319.685C488.146 321.696 488.511 323.341 486.245 321.733H375.662C373.651 323.341 372.006 321.733 373.249 319.685V318.076C372.006 316.102 373.541 314.969 375.662 314.42H486.245C488.511 315.152 488.146 316.285 490.229 318.076V319.685Z" fill="#E9EDFB"/>
<path d="M490.229 334.127C488.146 336.101 488.511 338.075 486.245 336.357H375.662C373.578 337.929 372.006 336.357 373.249 334.127V332.701C372.006 330.726 373.541 329.922 375.662 329.045H486.245C488.511 329.886 488.146 330.69 490.229 332.701V334.127Z" fill="#E9EDFB"/>
<path d="M490.229 348.531C488.145 350.542 488.511 352.809 486.245 354.637H375.662C373.505 352.553 372.006 350.688 373.249 348.531V347.106C372.926 346.742 372.735 346.281 372.707 345.796C372.679 345.31 372.816 344.83 373.095 344.432C373.374 344.034 373.779 343.742 374.245 343.604C374.711 343.465 375.21 343.488 375.662 343.669H486.245C488.511 342.974 488.145 345.095 490.229 347.106V348.531Z" fill="#E9EDFB"/>
<path d="M429.436 362.936C429.436 364.728 429.436 365.605 427.498 365.605H376.539C374.492 365.605 373.249 364.728 373.249 362.936V361.62C373.249 360.969 373.442 360.333 373.803 359.792C374.165 359.251 374.678 358.829 375.28 358.58C375.881 358.331 376.542 358.266 377.181 358.393C377.819 358.52 378.405 358.833 378.865 359.293C379.325 359.754 379.639 360.34 379.766 360.978C379.893 361.616 379.827 362.278 379.578 362.879C379.329 363.481 378.908 363.995 378.367 364.356C377.826 364.718 377.19 364.911 376.539 364.911L427.425 358.33C429.472 358.33 429.363 359.938 429.363 361.62L429.436 362.936Z" fill="#E9EDFB"/>
<path d="M219.712 305.28C221.138 307.291 220.334 308.571 218.067 307.108H107.484C107.081 307.426 106.601 307.634 106.094 307.711C105.586 307.788 105.067 307.731 104.588 307.547C104.108 307.362 103.685 307.057 103.36 306.659C103.035 306.262 102.818 305.787 102.732 305.28V303.854C103.098 302.82 103.73 301.901 104.564 301.189C105.399 300.476 106.406 299.996 107.484 299.796H218.067C220.334 300.381 221.138 301.844 219.712 303.854V305.28Z" fill="#E9EDFB"/>
<path d="M219.712 319.685C221.138 321.696 220.334 323.341 218.067 321.733H107.484C105.291 323.451 103.426 321.733 102.732 319.685V318.076C103.207 316.102 105.218 314.969 107.484 314.42H218.067C220.334 315.152 221.138 316.285 219.712 318.076V319.685Z" fill="#E9EDFB"/>
<path d="M219.712 334.127C221.138 336.101 220.334 338.075 218.067 336.357H107.484C105.254 338.039 103.426 336.357 102.732 334.127V332.701C103.207 330.726 105.218 329.922 107.484 329.045H218.067C220.334 329.886 221.138 330.69 219.712 332.701V334.127Z" fill="#E9EDFB"/>
<path d="M186.811 343.669H218.067C220.334 342.974 221.138 345.095 219.712 347.106V348.531C221.138 350.542 220.334 352.809 218.067 354.637H107.484C105.341 353.106 103.689 350.985 102.732 348.531V347.106C102.811 346.565 102.999 346.045 103.282 345.578C103.566 345.111 103.94 344.705 104.383 344.385C104.826 344.065 105.329 343.836 105.861 343.713C106.394 343.59 106.946 343.575 107.484 343.669H186.811Z" fill="#E9EDFB"/>
<path d="M164.877 362.936C164.877 364.728 163.854 365.605 161.624 365.605H106.789C104.596 365.605 102.622 364.728 102.622 362.936V361.62C102.791 360.655 103.309 359.786 104.078 359.18C104.847 358.573 105.812 358.27 106.789 358.33H161.624C162.04 358.315 162.455 358.383 162.844 358.53C163.233 358.677 163.59 358.9 163.892 359.185C164.195 359.471 164.438 359.814 164.607 360.194C164.776 360.574 164.868 360.985 164.877 361.401C164.877 361.401 164.877 361.401 164.877 361.657V362.936Z" fill="#E9EDFB"/>
</g>
<defs>
<linearGradient id="paint0_linear" x1="102.732" y1="93.2293" x2="230.679" y2="93.2293" gradientUnits="userSpaceOnUse">
<stop stop-color="#F71D69"/>
<stop offset="1" stop-color="#F8C648"/>
</linearGradient>
<linearGradient id="paint1_linear" x1="102.732" y1="170.006" x2="490.229" y2="170.006" gradientUnits="userSpaceOnUse">
<stop stop-color="#E5A4ED"/>
<stop offset="1" stop-color="#7A5BF5"/>
</linearGradient>
<linearGradient id="paint2_linear" x1="102.732" y1="25515" x2="129304" y2="25515" gradientUnits="userSpaceOnUse">
<stop stop-color="#E5A4ED"/>
<stop offset="1" stop-color="#7A5BF5"/>
</linearGradient>
<linearGradient id="paint3_linear" x1="129798" y1="25513.1" x2="133779" y2="25513.1" gradientUnits="userSpaceOnUse">
<stop stop-color="#E5A4ED"/>
<stop offset="1" stop-color="#7A5BF5"/>
</linearGradient>
<linearGradient id="paint4_linear" x1="134396" y1="25512.4" x2="490.224" y2="25512.4" gradientUnits="userSpaceOnUse">
<stop stop-color="#E5A4ED"/>
<stop offset="1" stop-color="#7A5BF5"/>
</linearGradient>
<clipPath id="clip0">
<rect width="600.126" height="577.656" fill="white"/>
</clipPath>
</defs>
</svg>
