<svg width="936" height="647" viewBox="0 0 936 647" fill="none" xmlns="http://www.w3.org/2000/svg">
<g clip-path="url(#clip0)">
<path d="M135.585 337.926H169.843C169.843 337.926 180.501 339.448 181.262 347.061C182.023 354.673 181.034 453.712 181.034 453.712L249.778 452.874C249.778 452.874 256.629 455.158 256.629 462.771C256.629 470.383 251.3 473.428 251.3 473.428L146.852 472.971L135.585 337.926Z" fill="#BAC6F2"/>
<path d="M135.585 337.926C135.585 337.926 125.688 339.448 124.927 354.673C124.166 369.898 124.927 472.667 124.927 472.667L229.299 473.428C230.822 473.428 232.268 472.819 233.258 471.677C234.78 470.002 236.836 467.414 236.836 465.054C236.836 460.944 235.313 454.397 226.939 454.397C218.565 454.397 147.765 453.636 147.765 453.636L146.243 347.061C146.243 347.137 146.243 339.448 135.585 337.926Z" fill="#B1C1F2"/>
<path d="M179.283 473.2C179.283 473.2 177.456 481.802 183.546 481.802H193.443C194.204 481.802 197.477 477.234 195.422 473.428C193.366 469.622 179.283 473.2 179.283 473.2Z" fill="#BAC6F2"/>
<path d="M183.546 481.878L184.307 567.823H191.159L191.539 481.345L183.546 481.878Z" fill="#E9EDFA"/>
<path d="M155.378 566.301L220.849 567.062V573.152L155.378 572.391V566.301Z" fill="#E9EDFA"/>
<path d="M284.797 573.913L281.752 414.812H297.739L296.977 573.913H284.797Z" fill="white"/>
<path d="M632.704 415.573H650.214L644.123 574.674L632.704 575.436V415.573Z" fill="white"/>
<path d="M269.571 387.407L270.332 413.289L657.826 415.573L658.283 386.646L269.571 387.407Z" fill="#E9EDFA"/>
<path d="M245.971 372.943L681.426 374.466V388.929L246.733 388.168L245.971 372.943Z" fill="#BAC6F2"/>
<path d="M778.642 508.293L779.404 572.999L866.19 571.477V508.293H778.642Z" fill="#E9EDFA"/>
<path d="M847.158 571.781L847.234 508.293H841.677" fill="white"/>
<path d="M801.176 508.141C801.176 508.141 799.121 469.774 817.24 458.888C835.358 448.002 819.828 422.577 823.482 409.102C827.136 395.628 844.189 385.732 844.189 375.379C844.189 365.026 842.666 335.946 862.308 327.192C881.949 318.438 897.555 329.78 891.389 346.908C885.222 364.036 880.502 383.753 873.727 389.919C866.951 396.085 869.616 405.981 870.606 417.933C871.595 429.884 862.308 449.525 857.131 456.833C851.954 464.141 857.131 476.549 855.608 489.49C855.608 489.49 852.792 507.608 849.899 508.217C847.006 508.826 801.176 508.141 801.176 508.141Z" fill="#BAC6F2"/>
<path d="M841.677 509.359C841.677 509.359 843.961 491.089 823.71 485.912C803.46 480.736 820.818 468.632 816.783 462.238C812.748 455.843 793.64 451.123 793.64 446.251C793.64 441.379 795.391 427.525 773.39 423.338C751.388 419.151 734.031 424.556 740.959 432.701C747.886 440.847 753.139 450.21 760.6 453.179C768.061 456.148 765.244 460.791 764.102 466.501C762.96 472.21 773.39 481.573 779.175 484.999C784.961 488.425 779.175 494.362 780.926 500.528C780.926 500.528 784.124 509.131 787.245 509.435C790.366 509.74 841.677 509.359 841.677 509.359Z" fill="#BAC6F2"/>
<path d="M824.776 509.283C824.776 509.283 823.178 490.176 837.261 484.771C851.345 479.366 839.317 466.729 842.057 460.03C844.798 453.331 858.197 448.459 858.197 443.282C858.197 438.106 856.979 423.718 872.28 419.303C887.582 414.888 899.687 420.597 894.814 429.123C889.942 437.649 886.364 447.393 881.111 450.514C875.858 453.635 877.914 458.507 878.675 464.445C879.436 470.383 872.204 480.203 868.17 483.781C864.135 487.359 868.17 493.601 866.951 499.996C866.951 499.996 864.744 508.978 862.536 509.283C860.328 509.587 824.776 509.283 824.776 509.283Z" fill="#BAC6F2"/>
<path d="M336.412 141.371L336.945 287.379L743.09 286.77V142.513L336.412 141.371Z" fill="white"/>
<path d="M409.038 187.046V205.012L575.379 204.25V187.046H409.038Z" fill="#BAC6F2"/>
<path d="M409.038 237.06V255.026L575.379 254.264V237.06H409.038Z" fill="#BAC6F2"/>
<path d="M380.947 211.254C387.842 211.254 393.432 205.664 393.432 198.769C393.432 191.874 387.842 186.285 380.947 186.285C374.052 186.285 368.462 191.874 368.462 198.769C368.462 205.664 374.052 211.254 380.947 211.254Z" fill="#BAC6F2"/>
<path d="M380.947 257.918C387.842 257.918 393.432 252.329 393.432 245.434C393.432 238.539 387.842 232.949 380.947 232.949C374.052 232.949 368.462 238.539 368.462 245.434C368.462 252.329 374.052 257.918 380.947 257.918Z" fill="#BAC6F2"/>
<path d="M719.567 206.686H620.828V254.873H719.567V206.686Z" fill="#E9EDFA"/>
<path d="M619.229 252.59C619.229 252.59 626.918 235.766 634.227 237.593C641.535 239.42 643.362 247.109 648.843 243.835C654.325 240.562 657.903 227.316 663.232 225.185C670.844 222.216 673.357 225.489 683.634 231.351C693.911 237.212 698.251 235.918 702.438 231.579C706.32 227.621 713.476 216.887 721.394 212.091" stroke="#BAC6F2" stroke-width="0.679301" stroke-linecap="round" stroke-linejoin="round"/>
<path d="M304.742 143.274H157.814V282.963H304.742V143.274Z" fill="white"/>
<path d="M229.375 265.835C250.355 265.835 267.363 248.828 267.363 227.849C267.363 206.87 250.355 189.863 229.375 189.863C208.395 189.863 191.387 206.87 191.387 227.849C191.387 248.828 208.395 265.835 229.375 265.835Z" stroke="#BAC6F2" stroke-width="1.3586" stroke-linecap="round" stroke-linejoin="round"/>
<path d="M204.862 155.378H167.483V164.209H204.862V155.378Z" fill="#BAC6F2"/>
<path d="M204.862 169.233H167.483V178.063H204.862V169.233Z" fill="#BAC6F2"/>
<path d="M276.727 350.258H392.671C392.671 350.258 397.01 350.03 397.01 345.005V335.033H272.159V347.137C272.768 349.04 274.596 350.334 276.727 350.258Z" fill="#BAC5F4"/>
<path d="M272.159 259.669L272.083 338.839L397.01 337.697V257.386C397.01 257.386 397.771 252.818 392.899 252.818H276.879C276.879 252.818 271.627 252.818 272.159 259.669Z" fill="#BAC5F4"/>
<path d="M324.688 371.497V349.497L342.959 350.258V369.594L324.688 371.497Z" fill="#BAC5F4"/>
<path d="M295.683 369.289H371.583L371.659 373.095H295.683V369.289Z" fill="#BAC5F4"/>
<path d="M333.443 340.438C335.498 340.438 337.097 342.037 337.097 344.092C337.097 346.147 335.498 347.746 333.443 347.746C331.387 347.746 329.789 346.147 329.789 344.092C329.789 342.037 331.464 340.438 333.443 340.438Z" fill="white"/>
<path d="M393.204 256.624H275.966V333.511H393.204V256.624Z" fill="#F8F8FF"/>
<path d="M281.828 260.583C282.817 260.583 283.655 261.42 283.655 262.41C283.655 263.399 282.817 264.237 281.828 264.237C280.838 264.237 280.001 263.399 280.001 262.41C280.001 261.42 280.838 260.583 281.828 260.583Z" fill="#FA5F5D"/>
<path d="M288.07 260.583C289.06 260.583 289.897 261.42 289.897 262.41C289.897 263.399 289.06 264.237 288.07 264.237C287.081 264.237 286.243 263.399 286.243 262.41C286.243 261.42 287.081 260.583 288.07 260.583Z" fill="#FDBC4E"/>
<path d="M294.617 260.583C295.607 260.583 296.444 261.42 296.444 262.41C296.444 263.399 295.607 264.237 294.617 264.237C293.628 264.237 292.79 263.399 292.79 262.41C292.79 261.42 293.628 260.583 294.617 260.583Z" fill="#37CD58"/>
<path d="M320.12 273.981C320.044 274.971 319.207 275.732 318.217 275.656H295.759C294.617 275.656 293.475 274.894 293.475 273.981V270.555C293.475 269.642 294.541 268.804 295.759 268.804H318.141C319.131 268.728 320.044 269.489 320.12 270.479V270.555V273.981Z" fill="url(#paint0_linear)"/>
<path d="M374.172 296.666C374.096 297.732 373.182 298.569 372.116 298.493H295.759C294.617 298.493 293.475 297.656 293.475 296.666V279.766C293.475 278.777 294.617 277.939 295.759 277.939H372.116C373.182 277.863 374.096 278.7 374.172 279.766V296.666Z" fill="url(#paint1_linear)"/>
<path d="M318.598 311.13C318.598 312.12 317.76 312.957 316.771 312.957H295.759C294.541 312.957 293.475 312.12 293.475 311.13V301.843C293.475 300.853 294.617 300.016 295.759 300.016H316.619C317.608 299.94 318.522 300.701 318.598 301.767V301.843V311.13Z" fill="url(#paint2_linear)"/>
<path d="M346.004 311.13C346.004 312.12 345.167 312.957 344.177 312.957H323.165C321.947 312.957 320.882 312.12 320.882 311.13V301.843C320.882 300.853 322.024 300.016 323.165 300.016H344.025C345.014 299.94 345.928 300.701 346.004 301.767V301.843V311.13Z" fill="url(#paint3_linear)"/>
<path d="M374.172 311.13C374.095 312.196 373.182 313.033 372.116 312.957H351.257C350.115 313.033 349.202 312.196 349.049 311.13V301.843C349.125 300.701 350.115 299.94 351.257 300.016H372.116C373.182 299.94 374.172 300.777 374.248 301.843L374.172 311.13Z" fill="url(#paint4_linear)"/>
<path d="M346.004 316.382C345.852 316.763 345.547 316.991 345.167 317.067C345.091 317.067 345.091 317.067 345.014 316.763H322.024C321.567 317.067 320.882 316.763 320.882 316.382V316.078C320.882 315.697 321.567 315.317 322.024 315.24H345.014C345.395 315.317 345.623 315.621 345.7 315.926C345.7 316.002 345.7 316.002 345.928 316.078L346.004 316.382Z" fill="#E9EDFB"/>
<path d="M346.004 319.351C345.852 319.732 345.547 320.036 345.167 320.113C345.167 320.113 345.091 320.113 345.091 319.808H322.024C321.567 320.113 320.882 319.808 320.882 319.351V319.047C320.882 318.666 321.567 318.362 322.024 318.285H345.014C345.395 318.362 345.776 318.666 345.928 319.047L346.004 319.351Z" fill="#E9EDFB"/>
<path d="M346.004 322.396C345.852 322.853 345.471 323.158 345.091 323.234C345.091 323.082 345.091 323.005 345.091 322.853H322.024C321.643 323.082 321.186 323.005 320.958 322.625C320.882 322.549 320.882 322.472 320.882 322.396V322.092C320.882 321.711 321.567 321.483 322.024 321.331H345.014C345.395 321.407 345.776 321.711 345.928 322.092L346.004 322.396Z" fill="#E9EDFB"/>
<path d="M346.004 325.365C345.776 325.822 345.471 326.279 345.091 326.659H322.024C321.567 326.279 320.882 325.822 320.882 325.365V325.061C320.882 324.68 321.567 324.223 322.024 324.375H345.014C345.319 324.299 345.623 324.528 345.7 324.832C345.7 324.908 345.7 324.984 345.7 325.061C345.7 325.061 345.7 325.061 345.928 325.137L346.004 325.365Z" fill="#E9EDFB"/>
<path d="M333.215 328.41C333.215 328.791 332.986 328.943 332.529 328.943H321.947C321.491 328.943 320.882 328.791 320.882 328.41V328.106C320.882 327.725 321.491 327.42 321.947 327.42H332.529C332.91 327.42 333.215 327.725 333.215 328.106V328.41Z" fill="#E9EDFB"/>
<path d="M374.172 316.382C373.715 316.763 373.791 317.067 373.334 316.763H350.343C349.963 317.067 349.582 316.839 349.582 316.458C349.582 316.458 349.582 316.458 349.81 316.382V316.078C349.582 315.697 349.887 315.317 350.343 315.24H373.334C373.791 315.393 373.715 315.697 374.172 316.078V316.382Z" fill="#E9EDFB"/>
<path d="M374.172 319.351C373.715 319.732 373.791 320.112 373.334 319.808H350.343C349.887 320.112 349.582 319.808 349.811 319.351V319.047C349.582 318.666 349.887 318.362 350.343 318.285H373.334C373.791 318.438 373.715 318.666 374.172 319.047V319.351Z" fill="#E9EDFB"/>
<path d="M374.172 322.396C373.715 322.777 373.791 323.234 373.334 322.853H350.343C349.887 323.158 349.582 322.853 349.811 322.396V322.092C349.582 321.711 349.887 321.483 350.343 321.331H373.334C373.791 321.483 373.715 321.711 374.172 322.092V322.396Z" fill="#E9EDFB"/>
<path d="M374.172 325.365C373.715 325.746 373.791 326.279 373.334 326.659H350.343C349.887 326.203 349.582 325.822 349.811 325.365V325.061C349.658 324.908 349.658 324.604 349.811 324.452C349.963 324.376 350.115 324.299 350.267 324.376H373.334C373.791 324.223 373.715 324.68 374.172 325.061V325.365Z" fill="#E9EDFB"/>
<path d="M361.534 328.41C361.534 328.791 361.534 328.943 361.154 328.943H350.496C350.039 328.943 349.811 328.791 349.811 328.41V328.106C349.811 327.725 350.115 327.42 350.496 327.42H361.078C361.534 327.42 361.458 327.725 361.458 328.106L361.534 328.41Z" fill="#E9EDFB"/>
<path d="M317.837 316.382C318.141 316.763 317.989 317.067 317.532 316.763H294.465C294.161 316.991 293.78 316.915 293.628 316.687C293.552 316.611 293.552 316.535 293.475 316.382V316.078C293.628 315.621 294.008 315.317 294.465 315.24H317.456C317.913 315.393 318.065 315.697 317.76 316.078L317.837 316.382Z" fill="#E9EDFB"/>
<path d="M317.837 319.351C318.141 319.732 317.989 320.113 317.532 319.808H294.465C294.008 320.189 293.628 319.808 293.475 319.351V319.047C293.552 318.666 294.008 318.362 294.465 318.285H317.456C317.913 318.438 318.065 318.666 317.76 319.047L317.837 319.351Z" fill="#E9EDFB"/>
<path d="M317.837 322.396C318.141 322.777 317.989 323.234 317.532 322.853H294.465C294.008 323.234 293.628 322.853 293.475 322.396V322.092C293.552 321.711 294.008 321.483 294.465 321.331H317.456C317.913 321.483 318.065 321.711 317.76 322.092L317.837 322.396Z" fill="#E9EDFB"/>
<path d="M310.985 324.375H317.532C317.989 324.223 318.141 324.68 317.837 325.061V325.365C318.141 325.746 317.989 326.279 317.532 326.659H294.465C294.008 326.355 293.704 325.898 293.475 325.365V325.061C293.552 324.604 294.008 324.299 294.465 324.375H310.985Z" fill="#E9EDFB"/>
<path d="M306.417 328.41C306.417 328.791 306.189 328.943 305.732 328.943H294.313C293.856 328.943 293.475 328.791 293.475 328.41V328.106C293.552 327.725 293.932 327.42 294.313 327.42H305.732C306.113 327.42 306.417 327.725 306.417 328.029C306.417 328.029 306.417 328.029 306.417 328.106V328.41Z" fill="#E9EDFB"/>
<path d="M63.415 571.325C63.415 571.325 70.1143 534.937 34.7907 515.449C-0.456779 495.961 -2.13161 496.19 -9.13543 493.982C-13.1702 492.612 -17.2812 495.505 -12.6373 501.29C-7.9935 507.152 -10.658 508.598 -1.37032 511.186C7.91736 513.775 9.28767 525.041 13.9315 527.858C18.5753 530.674 22.6102 531.436 36.7701 537.526C49.6358 543.083 60.5983 558.764 60.5983 564.245C60.5983 569.726 73.1595 571.63 73.1595 571.63L63.415 571.325Z" fill="url(#paint5_linear)"/>
<path d="M62.197 566.225C62.197 566.225 71.1802 532.73 40.272 514.612C9.36381 496.494 -1.37032 496.722 -7.53673 494.515C-11.0386 493.221 -1.44645 497.636 2.58836 502.965C6.62318 508.37 5.6335 507.152 12.8657 511.11C21.2398 515.754 24.7418 520.245 29.6901 521.159C36.8462 522.529 34.7146 529.989 47.1235 535.546C58.3144 540.647 59.7609 554.273 59.7609 559.373C59.7609 564.55 70.7234 566.225 70.7234 566.225H62.197Z" fill="url(#paint6_linear)"/>
<path d="M93.2574 561.276L96.7593 557.927C98.4341 556.404 100.49 555.263 102.697 554.654C113.584 551.761 147.918 541.027 162.154 515.069C162.306 514.84 162.154 514.536 161.925 514.46H161.849C161.773 514.46 161.697 514.383 161.697 514.383C156.977 514.003 132.54 513.622 99.8806 541.484C99.2715 541.941 98.7387 542.55 98.2819 543.083C97.4445 544.224 96.0742 546.204 95.4651 547.193C94.6277 548.716 96.3025 551.228 94.0187 553.436C91.7348 555.643 86.7865 561.2 86.7865 561.2L90.8213 564.169L93.2574 561.276Z" fill="url(#paint7_linear)"/>
<path d="M74.6821 559.145C74.6821 559.145 84.0459 475.331 58.4667 448.992C34.943 424.784 34.5623 447.013 34.6385 450.819C34.6385 451.2 34.7907 451.428 34.8668 451.733C40.4242 462.086 42.3274 474.037 40.3481 485.608C37.912 497.712 55.2693 496.113 56.7919 508.065C58.3144 520.017 64.3286 538.439 63.7196 546.889C63.1105 555.339 63.0344 563.56 63.0344 563.56L72.4743 563.865L74.6821 559.145Z" fill="url(#paint8_linear)"/>
<path d="M74.606 559.373C74.6821 559.221 74.7582 558.993 74.7582 558.764C75.3672 553.283 83.2085 474.342 58.5428 448.916C35.1714 424.784 34.7908 446.632 34.943 450.591C35.0191 451.047 35.2475 451.504 35.4759 451.885C37.2269 454.397 44.9158 465.359 51.7674 464.141C70.7234 460.791 53.9751 483.553 64.2525 495.733C72.4744 505.325 69.7337 538.515 69.1247 547.041C68.7441 551.837 67.9067 556.557 66.6886 561.2C66.4602 562.418 67.2976 563.56 68.4396 563.789C68.5157 563.789 68.5918 563.789 68.5918 563.789C68.7441 563.789 68.8963 563.865 69.0486 563.865H70.7995C71.8653 563.941 72.7789 563.408 73.2356 562.494L74.606 559.373Z" fill="url(#paint9_linear)"/>
<path d="M83.8175 564.245C83.8175 564.245 85.4923 541.027 99.0432 526.868C102.85 522.986 107.646 520.321 112.899 519.103C116.933 518.19 123.557 514.916 129.342 504.031C129.342 504.031 140.229 488.577 151.191 483.934C162.078 479.214 151.191 478.681 151.191 478.681C151.191 478.681 119.979 484.619 99.9567 502.889C98.6625 504.031 97.3683 505.096 95.9219 506.01C90.7452 509.588 76.3569 522.91 76.9659 561.962L83.8175 564.245Z" fill="url(#paint10_linear)"/>
<path d="M110.919 562.418C110.919 562.418 111.376 559.602 107.646 559.678C104.372 559.83 49.2551 559.373 49.2551 559.373C49.2551 559.373 46.6668 559.373 46.819 561.353C46.9713 563.332 55.3454 609.235 56.1067 610.149C56.4873 610.758 57.0202 611.215 57.7054 611.367C58.7712 611.671 97.4445 611.443 97.4445 611.443C98.358 611.291 99.0432 610.606 99.1193 609.692C99.1193 609.692 110.995 562.951 110.919 562.418Z" fill="url(#paint11_linear)"/>
<path d="M673.89 604.972C671.834 596.294 671.149 585.179 669.779 584.951H668.256L653.716 585.103C653.716 585.103 650.67 598.958 649.148 604.744C648.996 605.124 648.767 606.114 648.463 606.799C648.158 607.788 648.158 608.854 648.158 609.844C648.463 615.096 650.518 619.588 655.162 621.948C660.415 624.536 664.374 627.048 669.702 621.948C675.108 616.771 675.945 613.65 673.89 604.972Z" fill="#4B44BE"/>
<path d="M627.832 586.321L609.409 587.311C609.409 587.311 602.1 599.948 591.442 602.993C581.393 605.885 564.797 612.889 572.182 616.848C577.663 620.045 613.139 617.152 621.742 617.837C628.212 618.37 629.963 614.412 629.278 605.733C628.821 599.186 627.832 586.321 627.832 586.321Z" fill="#4B44BE"/>
<path d="M605.755 356.348C605.755 356.348 593.422 457.975 592.584 464.598C591.747 471.22 596.848 505.096 596.848 511.567C596.848 518.037 608.952 587.387 608.952 587.387L628.212 586.55C628.212 586.55 624.33 484.466 624.787 479.518C625.167 474.57 646.255 415.345 646.255 415.345C646.255 415.345 647.777 431.027 647.777 435.975C647.777 440.923 653.563 585.332 653.563 585.332H670.312L694.064 372.639L693.683 368.528L605.755 356.348Z" fill="url(#paint12_linear)"/>
<path d="M662.318 160.022C662.318 160.022 643.895 167.177 639.784 168.776C635.673 170.451 633.313 175.475 633.313 175.475C633.313 175.475 631.258 174.257 631.258 177.683C631.258 181.108 632.932 188.949 634.303 191.004C636.51 194.43 638.414 197.856 640.241 201.434C641.916 205.011 641.307 212.396 639.556 213.537C637.805 214.603 606.744 242.693 606.744 242.693L580.861 322.244L584.286 347.365L589.539 372.106C589.539 372.106 588.473 373.857 590.605 375.988C592.813 378.043 602.177 393.421 602.177 393.421L605.374 370.735L594.792 337.088L591.062 308.77L615.804 258.223L701.524 273.448L710.888 328.562L693.531 375.531L690.486 398.445L705.026 385.656C705.864 384.971 707.462 381.393 708.3 379.49L716.978 355.054L723.449 316.002C723.449 316.002 669.322 218.486 666.581 212.7C665.363 210.112 666.733 203.793 667.419 200.596C668.104 197.703 669.474 193.973 670.844 192.908C672.9 190.7 673.89 187.579 674.422 184.686C674.422 182.631 675.26 174.638 673.204 176.617C672.824 177.15 671.301 174.714 670.616 171.516C669.322 166.873 666.048 162.99 662.318 160.022Z" fill="url(#paint13_linear)"/>
<path d="M655.314 239.572C653.944 240.79 651.888 240.638 650.67 239.42C649.681 237.897 648.767 236.375 648.082 234.852C646.712 232.112 636.13 216.582 636.13 216.582C636.13 216.582 611.007 223.053 606.973 225.641C602.862 228.382 599.131 232.112 597.761 236.908C596.391 241.704 576.978 298.188 576.064 301.614C575.075 305.04 570.126 310.521 572.486 324.451C574.846 338.382 587.864 373.933 589.235 374.313C590.605 374.694 604.46 367.843 604.46 367.843C604.46 367.843 593.498 323.614 593.498 319.199C593.498 314.784 603.395 302.299 607.353 293.773C611.312 285.247 614.205 277.863 615.575 274.133C616.945 270.403 603.775 347.67 603.775 347.67C603.775 347.67 603.471 361.677 606.135 363.047C608.571 364.265 638.109 375.531 645.037 378.196C645.722 378.5 646.559 378.043 646.94 377.358L651.355 364.874C651.355 364.722 651.508 364.569 651.66 364.722C651.812 364.722 651.812 364.874 651.812 364.874L655.923 378.5C656.075 379.185 656.913 379.566 657.598 379.49L693.987 371.649C693.987 371.649 693.455 304.507 694.14 293.24C694.673 282.278 693.302 276.036 695.358 279.081C697.566 282.354 706.777 312.576 706.777 317.676C706.777 322.777 696.5 367.386 696.5 367.386L710.127 374.922C710.127 374.922 728.55 325.898 729.463 319.427C730.453 312.957 730.834 309.531 727.789 303.06C724.743 296.59 707.995 237.973 707.995 237.973C707.995 237.973 706.32 230.818 693.987 227.088C681.655 223.357 672.443 217.876 670.235 218.029C668.028 218.181 661.176 231.046 658.131 234.928C656.685 236.375 656.989 237.06 655.314 239.572Z" fill="url(#paint14_linear)"/>
<path d="M662.166 160.098C662.166 160.098 641.383 167.634 637.196 170.831C633.998 173.191 633.313 175.399 633.313 175.399C633.313 175.399 631.105 174.409 631.258 177.606C631.41 180.804 628.821 172.658 628.06 170.07C627.527 167.482 627.375 160.174 633.009 154.845C638.642 149.516 644.809 145.482 650.061 145.786C655.314 146.091 659.577 147.537 663.688 151.572C667.799 155.53 668.789 155.302 669.626 155.682C670.464 156.063 674.727 160.631 675.26 165.579C675.793 170.527 674.27 177.835 674.27 177.835C674.27 177.835 673.281 176.769 672.215 177.53C671.149 178.292 670.844 172.887 667.266 166.112C664.678 161.087 662.166 160.098 662.166 160.098Z" fill="url(#paint15_linear)"/>
<path opacity="0.07" d="M648.996 404.915C646.636 411.767 637.424 425.241 631.41 433.386C625.396 441.455 606.82 458.507 608.038 479.29C609.256 500.072 621.742 553.511 621.742 558.307C621.742 563.103 617.098 585.788 613.52 592.792C609.942 599.795 608.267 612.28 610.094 612.28C613.367 612.128 616.793 611.747 620.143 610.91C623.188 610.224 626.157 609.539 629.05 608.55C630.268 608.017 630.572 603.982 630.572 603.982C630.725 602.308 630.42 600.557 630.04 599.034C629.202 596.446 628.517 593.781 628.136 591.193C627.451 571.705 625.7 526.487 626.081 523.29C626.766 517.352 621.97 487.587 626.385 472.895C630.725 458.279 648.996 404.915 648.996 404.915Z" fill="black"/>
<path opacity="0.07" d="M604.46 367.843L601.263 392.279C601.263 392.279 604.46 397.379 605.374 393.116C606.364 388.853 612.911 380.86 608.8 375.151C604.689 369.441 604.46 367.843 604.46 367.843Z" fill="black"/>
<path opacity="0.07" d="M693.759 374.618L692.693 386.265L691.323 397.531C691.323 397.531 686.679 400.957 686.755 396.542C686.908 392.126 678.914 385.58 685.004 381.164C691.095 376.749 693.759 374.618 693.759 374.618Z" fill="black"/>
<path opacity="0.07" d="M635.978 216.735C636.815 216.582 632.019 217.8 636.282 216.43C643.59 214.07 640.545 200.368 640.545 200.368C640.545 200.368 641.23 205.468 648.082 207.524C654.933 209.579 656.761 208.056 646.407 212.852C636.13 217.648 641.459 219.323 642.144 225.641" fill="black"/>
<path opacity="0.07" d="M615.347 278.852L603.775 348.887C603.775 348.887 603.927 361.372 606.135 363.199C608.343 364.95 615.727 366.244 617.402 367.462C619.077 368.68 636.891 374.618 632.247 364.569C631.181 362.362 607.125 348.888 617.859 334.728C628.593 320.569 626.614 301.081 621.589 287.455C618.544 279.462 617.022 270.936 617.478 262.486L615.347 278.852Z" fill="black"/>
</g>
<defs>
<linearGradient id="paint0_linear" x1="293.457" y1="272.217" x2="320.102" y2="272.217" gradientUnits="userSpaceOnUse">
<stop stop-color="#F71D69"/>
<stop offset="1" stop-color="#F8C648"/>
</linearGradient>
<linearGradient id="paint1_linear" x1="293.457" y1="288.203" x2="374.153" y2="288.203" gradientUnits="userSpaceOnUse">
<stop stop-color="#E5A4ED"/>
<stop offset="1" stop-color="#7A5BF5"/>
</linearGradient>
<linearGradient id="paint2_linear" x1="293.457" y1="306.47" x2="318.579" y2="306.47" gradientUnits="userSpaceOnUse">
<stop stop-color="#E5A4ED"/>
<stop offset="1" stop-color="#7A5BF5"/>
</linearGradient>
<linearGradient id="paint3_linear" x1="320.863" y1="306.47" x2="345.985" y2="306.47" gradientUnits="userSpaceOnUse">
<stop stop-color="#E5A4ED"/>
<stop offset="1" stop-color="#7A5BF5"/>
</linearGradient>
<linearGradient id="paint4_linear" x1="349.031" y1="306.473" x2="374.153" y2="306.473" gradientUnits="userSpaceOnUse">
<stop stop-color="#E5A4ED"/>
<stop offset="1" stop-color="#7A5BF5"/>
</linearGradient>
<linearGradient id="paint5_linear" x1="-14.5925" y1="532.568" x2="73.3325" y2="532.568" gradientUnits="userSpaceOnUse">
<stop stop-color="#93FD93"/>
<stop offset="0.51" stop-color="#21C2C1"/>
<stop offset="1" stop-color="#84F599"/>
</linearGradient>
<linearGradient id="paint6_linear" x1="18.3522" y1="504.801" x2="68.3083" y2="566.051" gradientUnits="userSpaceOnUse">
<stop stop-color="#93FD93"/>
<stop offset="0.51" stop-color="#21C2C1"/>
<stop offset="1" stop-color="#84F599"/>
</linearGradient>
<linearGradient id="paint7_linear" x1="75.879" y1="574.059" x2="144.56" y2="520.915" gradientUnits="userSpaceOnUse">
<stop stop-color="#93FD93"/>
<stop offset="0.51" stop-color="#21C2C1"/>
<stop offset="1" stop-color="#84F599"/>
</linearGradient>
<linearGradient id="paint8_linear" x1="93.1455" y1="547.071" x2="34.1566" y2="472.391" gradientUnits="userSpaceOnUse">
<stop stop-color="#93FD93"/>
<stop offset="0.51" stop-color="#21C2C1"/>
<stop offset="1" stop-color="#84F599"/>
</linearGradient>
<linearGradient id="paint9_linear" x1="34.9006" y1="500.794" x2="76.4068" y2="500.794" gradientUnits="userSpaceOnUse">
<stop stop-color="#93FD93"/>
<stop offset="0.51" stop-color="#21C2C1"/>
<stop offset="1" stop-color="#84F599"/>
</linearGradient>
<linearGradient id="paint10_linear" x1="72.849" y1="568.604" x2="117.808" y2="503.581" gradientUnits="userSpaceOnUse">
<stop stop-color="#93FD93"/>
<stop offset="0.51" stop-color="#21C2C1"/>
<stop offset="1" stop-color="#84F599"/>
</linearGradient>
<linearGradient id="paint11_linear" x1="46.9284" y1="585.408" x2="110.989" y2="585.408" gradientUnits="userSpaceOnUse">
<stop stop-color="#E5A4ED"/>
<stop offset="1" stop-color="#7A5BF5"/>
</linearGradient>
<linearGradient id="paint12_linear" x1="592.45" y1="471.852" x2="693.933" y2="471.852" gradientUnits="userSpaceOnUse">
<stop stop-color="#4B45BD"/>
<stop offset="1" stop-color="#58CAEA"/>
</linearGradient>
<linearGradient id="paint13_linear" x1="580.862" y1="279.244" x2="723.471" y2="279.244" gradientUnits="userSpaceOnUse">
<stop stop-color="#F87B58"/>
<stop offset="0.41" stop-color="#F89453"/>
<stop offset="0.71" stop-color="#F8C548"/>
<stop offset="1" stop-color="#F89C51"/>
</linearGradient>
<linearGradient id="paint14_linear" x1="571.862" y1="298.009" x2="730.322" y2="298.009" gradientUnits="userSpaceOnUse">
<stop stop-color="#E5A4ED"/>
<stop offset="1" stop-color="#7A5BF5"/>
</linearGradient>
<linearGradient id="paint15_linear" x1="627.873" y1="161.999" x2="675.522" y2="161.999" gradientUnits="userSpaceOnUse">
<stop stop-color="#4B45BD"/>
<stop offset="1" stop-color="#58CAEA"/>
</linearGradient>
<clipPath id="clip0">
<rect width="936" height="647" fill="white"/>
</clipPath>
</defs>
</svg>
